# AST/ASF file generated using VICON BodyLanguage
# -----------------------------------------------
:version 1.10
:name VICON
:units
  mass 1.0
  length 0.45
  angle deg
:documentation
   .ast/.asf automatically generated from VICON data using
   VICON BodyBuilder and BodyLanguage model FoxedUp or BRILLIANT.MOD
:root
   order TX TY TZ RX RY RZ
   axis XYZ
   position 0 0 0  
   orientation 0 0 0 
:bonedata
  begin
     id 1 
     name lhipjoint
     direction 0.567149 -0.783011 0.255413 
     length 2.28399 
     axis 0 0 0  XYZ
  end
  begin
     id 2 
     name lfemur
     direction 0.34202 -0.939693 0  
     length 7.34031  
     axis 0 0 20  XYZ
    dof rx ry rz
    limits (-160.0 20.0)
           (-70.0 70.0)
           (-60.0 70.0)
  end
  begin
     id 3 
     name ltibia
     direction 0.34202 -0.939693 0   
     length 6.9833   
     axis 0 0 20   XYZ
    dof rx
    limits (-10.0 170.0)
  end
  begin
     id 4 
     name lfoot
     direction 0.136498 -0.375025 0.91691   
     length 2.33665   
     axis -90 7.62852e-016 20   XYZ
    dof rx rz
    limits (-45.0 90.0)
           (-70.0 20.0)
  end
  begin
     id 5 
     name ltoes
     direction 1.5367e-011 -4.21617e-011 1   
     length 1.15039   
     axis -90 7.62852e-016 20   XYZ
    dof rx
    limits (-90.0 20.0)
  end
  begin
     id 6 
     name rhipjoint
     direction -0.602854 -0.758518 0.247423   
     length 2.35775  
     axis 0 0 0  XYZ 
  end
  begin
     id 7 
     name rfemur
     direction -0.34202 -0.939693 0   
     length 7.43932   
     axis 0 0 -20   XYZ
    dof rx ry rz
    limits (-160.0 20.0)
           (-70.0 70.0)
           (-70.0 60.0)
  end
  begin
     id 8 
     name rtibia
     direction -0.34202 -0.939693 0   
     length 7.11893   
     axis 0 0 -20   XYZ
    dof rx
    limits (-10.0 170.0)
 end
 begin
     id 9 
     name rfoot
     direction -0.131771 -0.362037 0.922803   
     length 2.53019  
     axis -90 -7.62852e-016 -20   XYZ
    dof rx rz
    limits (-45.0 90.0)
           (-20.0 70.0)
  end
  begin
     id 10 
     name rtoes
     direction -1.53733e-011 -4.21932e-011 1   
     length 1.24596   
     axis -90 -7.62852e-016 -20   XYZ
    dof rx
    limits (-90.0 20.0)
  end
  begin
     id 11 
     name lowerback
     direction 0.0235427 0.999023 -0.0374125   
     length 2.21768   
     axis 0 0 0   XYZ
    dof rx ry rz
    limits (-20.0 45.0)
           (-30.0 30.0)
           (-30.0 30.0)
  end
  begin
     id 12 
     name upperback
     direction 0.0302156 0.996818 -0.073759   
     length 2.20352   
     axis 0 0 0   XYZ
    dof rx ry rz
    limits (-20.0 45.0)
           (-30.0 30.0)
           (-30.0 30.0)
  end
  begin
     id 13 
     name thorax
     direction 0.0187169 0.998235 -0.0563532   
     length 2.22103   
     axis 0 0 0   XYZ
    dof rx ry rz
    limits (-20.0 45.0)
           (-30.0 30.0)
           (-30.0 30.0)
  end
  begin
     id 14 
     name lowerneck
     direction -0.119528 0.987423 0.103481   
     length 1.72948   
     axis 0 0 0   XYZ
    dof rx ry rz
    limits (-20.0 45.0)
           (-30.0 30.0)
           (-30.0 30.0)
  end
  begin
     id 15 
     name upperneck
     direction 0.248049 0.963095 -0.104496   
     length 1.74979   
     axis 0 0 0   XYZ
    dof rx ry rz
    limits (-20.0 45.0)
           (-30.0 30.0)
           (-30.0 30.0)
  end
  begin
     id 16
     name head
     direction 0.0903589 0.994284 -0.056876  
     length 1.78268  
     axis 0 0 0   XYZ
    dof rx ry rz
    limits (-20.0 45.0)
           (-30.0 30.0)
           (-30.0 30.0)
  end
  begin
     id 17 
     name lclavicle
     direction 0.946008 0.242039 -0.215608  
     length 3.80783  
     axis 0 0 0   XYZ
    dof ry rz
    limits (-20.0 10.0)
           (0.0 20.0)
  end
  begin
     id 18 
     name lhumerus
     direction 1 -4.48991e-011 -2.25695e-027   
     length 4.83125   
     axis 180 -30 -90   XYZ
    dof rx ry rz
    limits (-60.0 90.0)
           (-90.0 90.0)
           (-90.0 90.0)
  end
  begin
     id 19
     name lradius
     direction 0.999991 0.00366712 -0.00211721   
     length 3.00391   
     axis 180 -30 -90   XYZ
    dof rx
    limits (-10.0 170.0)
  end
  begin
     id 20
     name lwrist
     direction 0.999991 0.00393016 -0.00141978   
     length 1.50195   
     axis -1.00488e-014 90 90   XYZ
    dof ry
    limits (-180.0 0.0)
 end
  begin
     id 21 
     name lhand
     direction 1 -4.49123e-011 2.72098e-026   
     length 1.2717   
     axis -1.73687e-014 90 90   XYZ
    dof rx rz
    limits (-90.0 90.0)
           (-45.0 45.0)
  end
  begin
     id 22 
     name lfingers
     direction 1 -4.48678e-011 5.4479e-026   
     length 1.02528   
     axis -3.47372e-014 90 90   XYZ
    dof rx
    limits (0.0 90.0)
  end
  begin
     id 23
     name lthumb
     direction 0.707107 -6.34851e-011 0.707107   
     length 1.4721   
     axis -90 45 -1.62303e-014   XYZ
    dof rx rz
    limits (-45.0 45.0)
           (-45.0 45.0)
  end
  begin
     id 24 
     name rclavicle
     direction -0.981723 0.189447 -0.0181673   
     length 3.74989  
     axis 0 0 0   XYZ 
    dof ry rz
    limits (-10.0 20.0)
           (-20.0 0.0)
  end
  begin
     id 25 
     name rhumerus
     direction -1 -4.48985e-011 2.38206e-027  
     length 4.61118   
     axis 180 30 90   XYZ
    dof rx ry rz
    limits (-90.0 60.0)
           (-90.0 90.0)
           (-90.0 90.0)
  end
  begin
     id 26 
     name rradius
     direction -1 -4.48977e-011 7.41019e-027   
     length 2.91491   
     axis 180 30 90   XYZ
    dof rx
    limits (-10.0 170.0)
  end
  begin
     id 27 
     name rwrist
     direction -1 -4.48549e-011 1.3624e-026   
     length 1.45745   
     axis -1.00488e-014 -90 -90   XYZ
    dof ry
    limits (-180.0 0.0)
  end
  begin
     id 28
     name rhand
     direction -1 -4.49107e-011 2.72109e-026   
     length 1.30769   
     axis -1.73687e-014 -90 -90   XYZ
    dof rx rz
    limits (-90.0 90.0)
           (-45.0 45.0)
  end
  begin
     id 29
     name rfingers
     direction -1 -4.48919e-011 5.44468e-026   
     length 1.05429   
     axis -3.47372e-014 -90 -90   XYZ
    dof rx
    limits (0.0 90.0)
  end
  begin
     id 30
     name rthumb
     direction -0.707107 -6.35315e-011 0.707107   
     length 1.51376   
     axis -90 -45 1.62303e-014   XYZ
    dof rx rz
    limits (-45.0 45.0)
           (-45.0 45.0)
  end
:hierarchy
  begin
    root lhipjoint rhipjoint lowerback
    lhipjoint lfemur
    lfemur ltibia
    ltibia lfoot
    lfoot ltoes
    rhipjoint rfemur
    rfemur rtibia
    rtibia rfoot
    rfoot rtoes
    lowerback upperback
    upperback thorax
    thorax lowerneck lclavicle rclavicle
    lowerneck upperneck
    upperneck head
    lclavicle lhumerus
    lhumerus lradius
    lradius lwrist
    lwrist lhand lthumb
    lhand lfingers
    rclavicle rhumerus
    rhumerus rradius
    rradius rwrist
    rwrist rhand rthumb
    rhand rfingers
  end

#!OML:ASF X:\für Bonn\!DataBase\2005_08_11_Bastian_Final\c3d\Bastian.ASF
:FULLY-SPECIFIED
:DEGREES
16
root -2.6532 17.2232 -7.63608 171.063 -3.25168 -174.446
lowerback 2.31413 -3.85298 0.498979
upperback 6.83331 -6.10892 3.61043
thorax 6.17557 -3.44792 3.24971
lowerneck -0.680191 -5.71688 -0.0374189
upperneck -11.813 -6.84748 3.57679
head -3.56584 -3.30801 1.35592
rclavicle 7.36994e-014 -2.66371e-014
rhumerus -221.509 -180.168 98.2381
rradius 87.5065
rwrist -151.225
rhand -11.3074 3.24748
rfingers 7.12502
rthumb 14.7243 -26.2096
lclavicle 7.36994e-014 -2.66371e-014
lhumerus -28.2943 -19.8188 91.9744
lradius 71.9335
lwrist 214.917
lhand -29.8497 7.78582
lfingers 7.12502
lthumb -3.17229 37.742
rfemur -8.81046 -19.3873 27.6285
rtibia 40.7203
rfoot -22.5505 -16.5675
rtoes -8.33473
lfemur 11.5991 12.1101 -9.02422
ltibia 44.3491
lfoot -12.3487 7.342
ltoes -34.538
17
root -2.63742 17.2061 -7.57424 171.171 -4.32627 -174.483
lowerback 1.97801 -3.99062 0.148002
upperback 6.77143 -6.2682 3.6275
thorax 6.35106 -3.53409 3.42942
lowerneck -0.582638 -5.97218 -0.169634
upperneck -11.7154 -7.19216 3.75147
head -3.53118 -3.48476 1.4442
rclavicle 4.72114e-014 -3.61788e-014
rhumerus -221.443 -180.377 98.0821
rradius 89.0432
rwrist -150.264
rhand -10.6113 3.15695
rfingers 7.12502
rthumb 15.3949 -26.2498
lclavicle 4.72114e-014 -3.61788e-014
lhumerus -27.4457 -20.4251 91.4551
lradius 72.7036
lwrist 215.627
lhand -29.5288 7.83075
lfingers 7.12502
lthumb -2.86242 37.7913
rfemur -9.46778 -19.8181 27.674
rtibia 41.1478
rfoot -22.4529 -16.9074
rtoes -6.82611
lfemur 13.0893 12.1848 -9.03697
ltibia 42.1134
lfoot -12.2966 7.43685
ltoes -35.6968
18
root -2.62174 17.1861 -7.50954 171.221 -5.40042 -174.498
lowerback 1.73456 -4.12982 -0.211205
upperback 6.7279 -6.43663 3.67307
thorax 6.50158 -3.63103 3.64838
lowerneck -0.502519 -6.22087 -0.380016
upperneck -11.6211 -7.52678 3.95775
head -3.48909 -3.65392 1.55456
rclavicle -8.19987e-015 3.97569e-016
rhumerus -221.3 -180.552 97.9738
rradius 90.579
rwrist -149.308
rhand -9.9294 3.03782
rfingers 7.12502
rthumb 16.0516 -26.3173
lclavicle -8.19987e-015 3.97569e-016
lhumerus -26.4171 -20.9687 90.8854
lradius 73.4547
lwrist 216.294
lhand -29.3303 8.03544
lfingers 7.12502
lthumb -2.67072 37.9985
rfemur -10.1083 -20.3333 27.7145
rtibia 41.6344
rfoot -22.393 -17.223
rtoes -5.33663
lfemur 14.6039 12.2239 -9.01756
ltibia 39.7312
lfoot -12.553 7.25881
ltoes -36.4765
19
root -2.60614 17.1646 -7.44415 171.247 -6.48564 -174.582
lowerback 1.5416 -4.27172 -0.640883
upperback 6.68989 -6.6024 3.68817
thorax 6.63606 -3.72982 3.87753
lowerneck -0.377826 -6.47096 -0.589359
upperneck -11.5298 -7.86289 4.18752
head -3.45415 -3.82586 1.67408
rclavicle -1.02175e-013 8.22969e-014
rhumerus -221.156 -180.715 97.8632
rradius 92.156
rwrist -148.345
rhand -9.2075 2.91934
rfingers 7.12502
rthumb 16.7467 -26.3784
lclavicle -1.02175e-013 8.22969e-014
lhumerus -25.2869 -21.5264 90.2075
lradius 74.2392
lwrist 217.005
lhand -29.1745 8.44922
lfingers 7.12502
lthumb -2.52021 38.4141
rfemur -10.7357 -20.9381 27.6385
rtibia 42.1611
rfoot -22.3734 -17.4294
rtoes -3.53529
lfemur 16.0903 12.1974 -9.1063
ltibia 37.2594
lfoot -13.0741 6.91951
ltoes -37.0702
